<svg width="13" height="13" viewBox="0 0 13 13" fill="none" xmlns="http://www.w3.org/2000/svg">
<g clip-path="url(#clip0_14_288)">
<path fill-rule="evenodd" clip-rule="evenodd" d="M13 4.46875C13 6.93678 10.9993 8.9375 8.53125 8.9375H5.6875V10.5625H4.0625V12.1875L3.25 13H0V9.75L4.19535 5.55465C4.10857 5.20701 4.0625 4.84326 4.0625 4.46875C4.0625 2.00072 6.06322 0 8.53125 0C10.9993 0 13 2.00072 13 4.46875ZM10.5625 3.25C10.5625 3.69873 10.1987 4.0625 9.75 4.0625C9.30126 4.0625 8.9375 3.69873 8.9375 3.25C8.9375 2.80127 9.30126 2.4375 9.75 2.4375C10.1987 2.4375 10.5625 2.80127 10.5625 3.25Z" fill="#505077"/>
</g>
<defs>
<clipPath id="clip0_14_288">
<rect width="13" height="13" fill="white"/>
</clipPath>
</defs>
</svg>
