<svg width="17" height="15" viewBox="0 0 17 15" fill="none" xmlns="http://www.w3.org/2000/svg">
<path d="M12.9625 5.59852H8.925L8.925 7.11786C8.925 8.22118 8.20569 9.22723 7.21039 9.33768C6.06581 9.46462 5.1 8.47577 5.1 7.23915V3.70301L4.44895 4.13456C3.2725 4.9159 2.55106 6.31922 2.55106 7.8368L0.426058 9.19325C0.0209795 9.44962 -0.121927 10.0247 0.113948 10.4715L2.23895 14.532C2.47469 14.9788 2.99598 15.1326 3.40106 14.8763L6.14762 13.1258H9.77606C10.7124 13.1258 11.4761 12.2835 11.4761 11.2508C12.1802 11.2508 12.7511 10.6212 12.7511 9.84452V8.43739H12.9636C13.3155 8.43739 13.6011 8.12245 13.6011 7.73426L13.6011 6.32801C13.6 5.93836 13.3158 5.59852 12.9625 5.59852ZM16.8858 4.52626L14.7621 0.465708C14.5264 0.0189306 14.0051 -0.134878 13.6 0.12147L10.8534 1.87196H9.19142C8.18603 1.87196 7.20109 2.1828 6.34657 2.76932C6.1014 2.94129 5.95 3.24012 5.95 3.56239L5.94999 7.26551C5.94999 7.91385 6.42492 8.43739 7.01249 8.43739C7.60031 8.43739 8.07499 7.91356 8.07499 7.26551V4.66102H12.9625C13.7841 4.66102 14.45 5.39549 14.45 6.30165V7.13661L16.575 5.78163C16.9814 5.54872 17.1195 4.9745 16.8858 4.52626Z" fill="#505077"/>
</svg>
