<svg width="13" height="15" viewBox="0 0 13 15" fill="none" xmlns="http://www.w3.org/2000/svg">
<path d="M3.66666 0.416672C4.05786 0.416672 4.37499 0.733807 4.37499 1.12501V2.54167C5.54863 2.54167 6.49999 3.49307 6.49999 4.66667V8.91667C6.49999 10.0903 5.54863 11.0417 4.37499 11.0417V13.875C4.37499 14.2662 4.05786 14.5833 3.66666 14.5833C3.27546 14.5833 2.95833 14.2662 2.95833 13.875V11.0417C1.78473 11.0417 0.833328 10.0903 0.833328 8.91667V4.66667C0.833328 3.49307 1.78473 2.54167 2.95833 2.54167V1.12501C2.95833 0.733807 3.27546 0.416672 3.66666 0.416672ZM10.0417 0.416672C10.4049 0.416672 10.7043 0.69012 10.7452 1.0424L10.75 1.12501V3.95834C11.8817 3.95834 12.8068 4.84299 12.8714 5.95848L12.875 6.08334V10.3333C12.875 11.4651 11.9904 12.3901 10.8749 12.4547L10.75 12.4583V13.875C10.75 14.2662 10.4329 14.5833 10.0417 14.5833C9.67839 14.5833 9.37901 14.3099 9.33809 13.9576L9.33333 13.875V12.4583C8.20161 12.4583 7.27657 11.5737 7.21194 10.4582L7.20833 10.3333V6.08334C7.20833 4.95165 8.09295 4.02658 9.20846 3.96195L9.33333 3.95834V1.12501C9.33333 0.733807 9.65045 0.416672 10.0417 0.416672Z" fill="#505077"/>
</svg>
